<?xml version="1.0" encoding="UTF-8"?> <svg xmlns="http://www.w3.org/2000/svg" xmlns:xlink="http://www.w3.org/1999/xlink" fill="#2ADB6A" version="1.1" id="Capa_1" width="196px" height="196px" viewBox="-37.68 -37.68 417.87 417.87" xml:space="preserve" stroke="#2ADB6A" stroke-width="0.0034250799999999996"> <g id="SVGRepo_bgCarrier" stroke-width="0" transform="translate(56.513819999999996,56.513819999999996), scale(0.67)"> <rect x="-37.68" y="-37.68" width="417.87" height="417.87" rx="208.935" fill="#ffffff"></rect> </g> <g id="SVGRepo_tracerCarrier" stroke-linecap="round" stroke-linejoin="round" stroke="#CCCCCC" stroke-width="2.740064"></g> <g id="SVGRepo_iconCarrier"> <g> <path d="M171.254,0C76.837,0,0.003,76.819,0.003,171.248c0,94.428,76.829,171.26,171.251,171.26 c94.438,0,171.251-76.826,171.251-171.26C342.505,76.819,265.697,0,171.254,0z M245.371,136.161l-89.69,89.69 c-2.693,2.69-6.242,4.048-9.758,4.048c-3.543,0-7.059-1.357-9.761-4.048l-39.007-39.007c-5.393-5.398-5.393-14.129,0-19.521 c5.392-5.392,14.123-5.392,19.516,0l29.252,29.262l79.944-79.948c5.381-5.386,14.111-5.386,19.504,0 C250.764,122.038,250.764,130.769,245.371,136.161z"></path> </g> </g> </svg> 