<?xml version="1.0" encoding="UTF-8"?> <svg xmlns="http://www.w3.org/2000/svg" width="10" height="10" viewBox="0 0 10 10" fill="none"><path fill-rule="evenodd" clip-rule="evenodd" d="M5 10C7.76142 10 10 7.76142 10 5C10 2.23858 7.76142 0 5 0C2.23858 0 0 2.23858 0 5C0 7.76142 2.23858 10 5 10ZM7.53033 3.46967C7.82322 3.76256 7.82322 4.23744 7.53033 4.53033L5.03033 7.03033C4.73744 7.32322 4.26256 7.32322 3.96967 7.03033L2.46967 5.53033C2.17678 5.23744 2.17678 4.76256 2.46967 4.46967C2.76256 4.17678 3.23744 4.17678 3.53033 4.46967L4.5 5.43934L6.46967 3.46967C6.76256 3.17678 7.23744 3.17678 7.53033 3.46967Z" fill="#5AC05B"></path></svg> 